<?xml version="1.0" encoding="UTF-8"?>
<svg xmlns="http://www.w3.org/2000/svg" xmlns:xlink="http://www.w3.org/1999/xlink" width="1000px" height="389px" viewBox="0 0 1001 389" version="1.1">
<defs>
<clipPath id="clip1">
  <path d="M 0.5 0 L 561.089844 0 L 561.089844 388.773438 L 0.5 388.773438 Z M 0.5 0 "/>
</clipPath>
<clipPath id="clip2">
  <path d="M 652.84375 21.113281 L 748 21.113281 L 748 367.65625 L 652.84375 367.65625 Z M 652.84375 21.113281 "/>
</clipPath>
<clipPath id="clip3">
  <path d="M 652.84375 21.113281 L 749 21.113281 L 749 367.65625 L 652.84375 367.65625 Z M 652.84375 21.113281 "/>
</clipPath>
<clipPath id="clip4">
  <path d="M 768 21.113281 L 864 21.113281 L 864 367.65625 L 768 367.65625 Z M 768 21.113281 "/>
</clipPath>
<clipPath id="clip5">
  <path d="M 767 21.113281 L 864 21.113281 L 864 367.65625 L 767 367.65625 Z M 767 21.113281 "/>
</clipPath>
<clipPath id="clip6">
  <path d="M 883 21.113281 L 979 21.113281 L 979 367.65625 L 883 367.65625 Z M 883 21.113281 "/>
</clipPath>
<clipPath id="clip7">
  <path d="M 883 21.113281 L 980 21.113281 L 980 367.65625 L 883 367.65625 Z M 883 21.113281 "/>
</clipPath>
</defs>
<g id="surface1">
<g clip-path="url(#clip1)" clip-rule="nonzero">
<path style=" stroke:none;fill-rule:nonzero;fill:rgb(96.862745%,49.803922%,63.137255%);fill-opacity:1;" d="M 204.910156 352.359375 L 204.910156 384.289062 L 0.5 384.289062 L 0.5 6.722656 L 201.550781 6.722656 L 201.550781 38.652344 L 35.222656 38.652344 L 35.222656 179.820312 L 181.949219 179.820312 L 181.949219 211.75 L 35.222656 211.75 L 35.222656 352.359375 Z M 561.089844 176.460938 L 561.089844 356.28125 C 531.59375 377.941406 494.257812 388.773438 449.082031 388.773438 C 391.585938 388.773438 345.367188 371.480469 310.421875 336.898438 C 275.550781 302.390625 258.113281 255.074219 258.113281 194.945312 C 258.113281 138.179688 275.175781 91.496094 309.300781 54.898438 C 343.5 18.300781 386.734375 0 439.003906 0 C 483.433594 0 520.019531 8.777344 548.769531 26.328125 L 548.769531 64.980469 C 520.019531 44.816406 484.925781 34.730469 443.484375 34.730469 C 399.425781 34.730469 363.472656 49.371094 335.621094 78.652344 C 307.84375 108.003906 293.957031 146.769531 293.957031 194.945312 C 293.957031 244.617188 307.769531 283.53125 335.398438 311.691406 C 363.027344 339.921875 401.109375 354.039062 449.644531 354.039062 C 478.390625 354.039062 503.964844 348.25 526.367188 336.675781 L 526.367188 207.269531 L 437.324219 207.269531 L 437.324219 176.460938 Z M 561.089844 176.460938 "/>
</g>
<g clip-path="url(#clip2)" clip-rule="nonzero">
<path style=" stroke:none;fill-rule:nonzero;fill:rgb(85.882353%,72.156863%,81.568627%);fill-opacity:1;" d="M 652.84375 21.113281 L 747.539062 21.113281 L 747.539062 367.65625 L 652.84375 367.65625 Z M 652.84375 21.113281 "/>
</g>
<g clip-path="url(#clip3)" clip-rule="nonzero">
<path style="fill:none;stroke-width:1;stroke-linecap:butt;stroke-linejoin:miter;stroke:rgb(100%,100%,100%);stroke-opacity:1;stroke-miterlimit:4;" d="M 0.00074487 -0.00053056 L 60.229896 -0.00053056 L 60.229896 220.348351 L 0.00074487 220.348351 Z M 0.00074487 -0.00053056 " transform="matrix(1.57225,0,0,1.572701,652.842579,21.114116)"/>
</g>
<g clip-path="url(#clip4)" clip-rule="nonzero">
<path style=" stroke:none;fill-rule:nonzero;fill:rgb(85.882353%,72.156863%,81.568627%);fill-opacity:0.74902;" d="M 768.324219 21.113281 L 863.019531 21.113281 L 863.019531 367.65625 L 768.324219 367.65625 Z M 768.324219 21.113281 "/>
</g>
<g clip-path="url(#clip5)" clip-rule="nonzero">
<path style="fill:none;stroke-width:1;stroke-linecap:butt;stroke-linejoin:miter;stroke:rgb(100%,100%,100%);stroke-opacity:1;stroke-miterlimit:4;" d="M 73.449899 -0.00053056 L 133.67905 -0.00053056 L 133.67905 220.348351 L 73.449899 220.348351 Z M 73.449899 -0.00053056 " transform="matrix(1.57225,0,0,1.572701,652.842579,21.114116)"/>
</g>
<g clip-path="url(#clip6)" clip-rule="nonzero">
<path style=" stroke:none;fill-rule:nonzero;fill:rgb(85.882353%,72.156863%,81.568627%);fill-opacity:0.501961;" d="M 883.804688 21.113281 L 978.5 21.113281 L 978.5 367.65625 L 883.804688 367.65625 Z M 883.804688 21.113281 "/>
</g>
<g clip-path="url(#clip7)" clip-rule="nonzero">
<path style="fill:none;stroke-width:1;stroke-linecap:butt;stroke-linejoin:miter;stroke:rgb(100%,100%,100%);stroke-opacity:1;stroke-miterlimit:4;" d="M 146.899053 -0.00053056 L 207.128204 -0.00053056 L 207.128204 220.348351 L 146.899053 220.348351 Z M 146.899053 -0.00053056 " transform="matrix(1.57225,0,0,1.572701,652.842579,21.114116)"/>
</g>
</g>
</svg>
