<?xml version="1.0" encoding="UTF-8"?>
<svg xmlns="http://www.w3.org/2000/svg" xmlns:xlink="http://www.w3.org/1999/xlink" width="3000px" height="1053px" viewBox="0 0 3000 1053" version="1.1">
<defs>
<clipPath id="clip1">
  <path d="M 0.0429688 0.945312 L 1698.964844 0.945312 L 1698.964844 1048.992188 L 0.0429688 1048.992188 Z M 0.0429688 0.945312 "/>
</clipPath>
<clipPath id="clip2">
  <path d="M 1946.386719 0 L 2234 0 L 2234 1049.933594 L 1946.386719 1049.933594 Z M 1946.386719 0 "/>
</clipPath>
<clipPath id="clip3">
  <path d="M 1946.386719 0 L 2236 0 L 2236 1049.933594 L 1946.386719 1049.933594 Z M 1946.386719 0 "/>
</clipPath>
<clipPath id="clip4">
  <path d="M 2296 0 L 2584 0 L 2584 1049.933594 L 2296 1049.933594 Z M 2296 0 "/>
</clipPath>
<clipPath id="clip5">
  <path d="M 2294 0 L 2586 0 L 2586 1049.933594 L 2294 1049.933594 Z M 2294 0 "/>
</clipPath>
<clipPath id="clip6">
  <path d="M 2646 0 L 2934 0 L 2934 1049.933594 L 2646 1049.933594 Z M 2646 0 "/>
</clipPath>
<clipPath id="clip7">
  <path d="M 2644 0 L 2936 0 L 2936 1049.933594 L 2644 1049.933594 Z M 2644 0 "/>
</clipPath>
</defs>
<g id="surface1">
<g clip-path="url(#clip1)" clip-rule="nonzero">
<path style=" stroke:none;fill-rule:nonzero;fill:rgb(96.862745%,49.803922%,63.137255%);fill-opacity:1;" d="M 632.796875 851.160156 L 632.796875 1036.910156 L 0.0429688 1036.910156 L 0.0429688 19.066406 L 626.757812 19.066406 L 626.757812 204.816406 L 234.117188 204.816406 L 234.117188 435.867188 L 584.472656 435.867188 L 584.472656 620.105469 L 234.117188 620.105469 L 234.117188 851.160156 Z M 1698.96875 429.828125 L 1698.96875 943.28125 C 1602.316406 1013.753906 1480.496094 1048.992188 1333.507812 1048.992188 C 1170.414062 1048.992188 1038.023438 1002.175781 936.339844 908.546875 C 834.65625 814.917969 783.8125 687.5625 783.8125 526.476562 C 783.8125 367.40625 836.871094 240.050781 942.984375 144.410156 C 1049.296875 48.765625 1184.003906 0.945312 1347.101562 0.945312 C 1461.871094 0.945312 1561.039062 22.085938 1644.601562 64.371094 L 1644.601562 296.933594 C 1547.953125 241.5625 1448.785156 213.875 1347.101562 213.875 C 1251.457031 213.875 1175.445312 242.265625 1119.066406 299.046875 C 1062.6875 356.03125 1034.5 431.839844 1034.5 526.476562 C 1034.5 622.121094 1062.183594 698.132812 1117.558594 754.511719 C 1172.929688 810.890625 1248.4375 839.078125 1344.082031 839.078125 C 1387.371094 839.078125 1430.160156 832.535156 1472.445312 819.449219 L 1472.445312 627.65625 L 1307.835938 627.65625 L 1307.835938 429.828125 Z M 1698.96875 429.828125 "/>
</g>
<g clip-path="url(#clip2)" clip-rule="nonzero">
<path style=" stroke:none;fill-rule:nonzero;fill:rgb(85.882353%,72.156863%,81.568627%);fill-opacity:1;" d="M 1946.386719 0 L 2233.367188 0 L 2233.367188 1049.933594 L 1946.386719 1049.933594 Z M 1946.386719 0 "/>
</g>
<g clip-path="url(#clip3)" clip-rule="nonzero">
<path style="fill:none;stroke-width:1;stroke-linecap:butt;stroke-linejoin:miter;stroke:rgb(100%,100%,100%);stroke-opacity:1;stroke-miterlimit:4;" d="M 0.000249438 0.000000000000005996 L 66.811085 0.000000000000005996 L 66.811085 244.431062 L 0.000249438 244.431062 Z M 0.000249438 0.000000000000005996 " transform="matrix(4.295418,0,0,4.295418,1946.385647,-0.000000000000025757)"/>
</g>
<g clip-path="url(#clip4)" clip-rule="nonzero">
<path style=" stroke:none;fill-rule:nonzero;fill:rgb(85.882353%,72.156863%,81.568627%);fill-opacity:0.74902;" d="M 2296.363281 0 L 2583.347656 0 L 2583.347656 1049.933594 L 2296.363281 1049.933594 Z M 2296.363281 0 "/>
</g>
<g clip-path="url(#clip5)" clip-rule="nonzero">
<path style="fill:none;stroke-width:1;stroke-linecap:butt;stroke-linejoin:miter;stroke:rgb(100%,100%,100%);stroke-opacity:1;stroke-miterlimit:4;" d="M 81.476967 0.000000000000005996 L 148.288712 0.000000000000005996 L 148.288712 244.431062 L 81.476967 244.431062 Z M 81.476967 0.000000000000005996 " transform="matrix(4.295418,0,0,4.295418,1946.385647,-0.000000000000025757)"/>
</g>
<g clip-path="url(#clip6)" clip-rule="nonzero">
<path style=" stroke:none;fill-rule:nonzero;fill:rgb(85.882353%,72.156863%,81.568627%);fill-opacity:0.501961;" d="M 2646.34375 0 L 2933.324219 0 L 2933.324219 1049.933594 L 2646.34375 1049.933594 Z M 2646.34375 0 "/>
</g>
<g clip-path="url(#clip7)" clip-rule="nonzero">
<path style="fill:none;stroke-width:1;stroke-linecap:butt;stroke-linejoin:miter;stroke:rgb(100%,100%,100%);stroke-opacity:1;stroke-miterlimit:4;" d="M 162.954594 0.000000000000005996 L 229.765429 0.000000000000005996 L 229.765429 244.431062 L 162.954594 244.431062 Z M 162.954594 0.000000000000005996 " transform="matrix(4.295418,0,0,4.295418,1946.385647,-0.000000000000025757)"/>
</g>
</g>
</svg>
