<svg xmlns="http://www.w3.org/2000/svg" version="1.1" xmlns:xlink="http://www.w3.org/1999/xlink" xmlns:svgjs="http://svgjs.dev/svgjs" width="2000" height="702" viewBox="0 0 2000 702"><g transform="matrix(1,0,0,1,-1.2121212121212466,-1.0217080306381945)"><svg viewBox="0 0 396 139" data-background-color="#ffffff" preserveAspectRatio="xMidYMid meet" height="702" width="2000" xmlns="http://www.w3.org/2000/svg" xmlns:xlink="http://www.w3.org/1999/xlink"><g id="tight-bounds" transform="matrix(1,0,0,1,0.2400000000000091,0.20230401176453938)"><svg viewBox="0 0 395.52 138.59539197647095" height="138.59539197647095" width="395.52"><g><svg viewBox="0 0 697.55199021056 244.43135999999998" height="138.59539197647095" width="395.52"><g transform="matrix(1,0,0,1,0,0.21973333333330913)"><svg viewBox="0 0 395.52 243.99189333333337" height="243.99189333333337" width="395.52"><g id="textblocktransform"><svg viewBox="0 0 395.52 243.99189333333337" height="243.99189333333337" width="395.52" id="textblock"><g><svg viewBox="0 0 395.52 243.99189333333337" height="243.99189333333337" width="395.52"><g transform="matrix(1,0,0,1,0,0)"><svg width="395.52" viewBox="3.25 -34.3 56.25 34.699999999999996" height="243.99189333333337" data-palette-color="#f77fa1"><path d="M24.2-6.15L24.2 0 3.25 0 3.25-33.7 24-33.7 24-27.55 11-27.55 11-19.9 22.6-19.9 22.6-13.8 11-13.8 11-6.15 24.2-6.15ZM59.5-20.1L59.5-3.1Q54.7 0.4 47.4 0.4L47.4 0.4Q39.3 0.4 34.25-4.25 29.2-8.9 29.2-16.9L29.2-16.9Q29.2-24.8 34.47-29.55 39.75-34.3 47.85-34.3L47.85-34.3Q53.55-34.3 57.7-32.2L57.7-32.2 57.7-24.5Q52.9-27.25 47.85-27.25L47.85-27.25Q43.1-27.25 40.3-24.43 37.5-21.6 37.5-16.9L37.5-16.9Q37.5-12.15 40.25-9.35 43-6.55 47.75-6.55L47.75-6.55Q49.9-6.55 52-7.2L52-7.2 52-13.55 46.55-13.55 46.55-20.1 59.5-20.1Z" opacity="1" transform="matrix(1,0,0,1,0,0)" fill="#f77fa1" class="wordmark-text-0" data-fill-palette-color="primary" id="text-0"></path></svg></g></svg></g></svg></g></svg></g><g transform="matrix(1,0,0,1,453.12063021055997,0)"><svg viewBox="0 0 244.43135999999998 244.43135999999998" height="244.43135999999998" width="244.43135999999998"><g data-palette-color="#dbb8d0"><rect width="66.8112384" height="244.43135999999998" fill="#dbb8d0" stroke="transparent" data-fill-palette-color="accent" x="0" fill-opacity="1"></rect><rect width="66.8112384" height="244.43135999999998" fill="#dbb8d0" stroke="transparent" data-fill-palette-color="accent" x="81.47711999999999" fill-opacity="0.75"></rect><rect width="66.8112384" height="244.43135999999998" fill="#dbb8d0" stroke="transparent" data-fill-palette-color="accent" x="162.95423999999997" fill-opacity="0.5"></rect></g></svg></g></svg></g><defs></defs></svg><rect width="395.52" height="138.59539197647095" fill="none" stroke="none" visibility="hidden"></rect></g></svg></g></svg>