<svg xmlns="http://www.w3.org/2000/svg" version="1.1" xmlns:xlink="http://www.w3.org/1999/xlink" xmlns:svgjs="http://svgjs.dev/svgjs" width="2000" height="1247" viewBox="0 0 2000 1247"><g transform="matrix(1,0,0,1,-1.2121212121212466,0.504858299595071)"><svg viewBox="0 0 396 247" data-background-color="#1f0f53" preserveAspectRatio="xMidYMid meet" height="1247" width="2000" xmlns="http://www.w3.org/2000/svg" xmlns:xlink="http://www.w3.org/1999/xlink"><g id="tight-bounds" transform="matrix(1,0,0,1,0.2400000000000091,-0.09999999999999432)"><svg viewBox="0 0 395.52 247.2" height="247.2" width="395.52"><g><svg></svg></g><g><svg viewBox="0 0 395.52 247.2" height="247.2" width="395.52"><g transform="matrix(1,0,0,1,141.31140879765394,47.215199999999996)"><svg viewBox="0 0 112.89718240469209 152.7696" height="152.7696" width="112.89718240469209"><g><svg viewBox="0 0 112.89718240469209 152.7696" height="152.7696" width="112.89718240469209"><g><svg viewBox="0 0 112.89718240469209 152.7696" height="152.7696" width="112.89718240469209"><g><svg viewBox="0 0 112.89718240469209 152.7696" height="152.7696" width="112.89718240469209"><g id="textblocktransform"><svg viewBox="0 0 112.89718240469209 152.7696" height="152.7696" width="112.89718240469209" id="textblock"><g><svg viewBox="0 0 112.89718240469209 152.7696" height="152.7696" width="112.89718240469209"><g transform="matrix(1,0,0,1,0,0)"><svg width="112.89718240469209" viewBox="2.8 -33.95 25.2 34.1" height="152.7696" data-palette-color="#ffdb99"><path d="M2.8-33.95L2.8-33.95Q3.55-33.9 4.67-33.88 5.8-33.85 7.05-33.83 8.3-33.8 9.43-33.8 10.55-33.8 11.2-33.8L11.2-33.8 11.2-6.9Q11.2-5.05 11.55-4.05 11.9-3.05 12.9-2.65 13.9-2.25 15.75-2.25L15.75-2.25 15.75 0Q14.35 0 12.53 0 10.7 0 8.83 0.03 6.95 0.05 5.35 0.08 3.75 0.1 2.8 0.15L2.8 0.15Q2.8-0.55 2.85-1.07 2.9-1.6 3.05-2L3.05-2Q4.4-2.1 5.15-2.5 5.9-2.9 6.2-3.93 6.5-4.95 6.5-6.9L6.5-6.9 6.5-27.45Q6.5-29.15 6.2-30.05 5.9-30.95 5.15-31.35 4.4-31.75 3.05-31.8L3.05-31.8Q2.9-32.2 2.85-32.77 2.8-33.35 2.8-33.95ZM25.8-8.55L25.8-8.55Q26.55-8.35 27.05-8.08 27.55-7.8 28-7.35L28-7.35Q27.45-5.65 27.08-3.65 26.7-1.65 26.45 0.1L26.45 0.1Q25.5 0.05 23.88 0.05 22.25 0.05 20.18 0.03 18.1 0 15.75 0L15.75 0 15.75-2.25 16.05-2.25Q19.65-2.25 21.48-2.98 23.3-3.7 24.2-5.1 25.1-6.5 25.8-8.55ZM22.3-22.5L22.3-22.5Q22.25-21.25 22.23-19.8 22.2-18.35 22.2-17.05L22.2-17.05Q22.2-15.75 22.23-14.15 22.25-12.55 22.3-11.25L22.3-11.25Q21.65-11.25 21.1-11.3 20.55-11.35 20-11.5L20-11.5Q19.8-14.1 18.63-15.03 17.45-15.95 14.35-15.95L14.35-15.95 10.75-15.95 10.75-18.1 14.35-18.1Q17.45-18.1 18.65-18.9 19.85-19.7 19.9-22.15L19.9-22.15Q20.55-22.35 21.1-22.43 21.65-22.5 22.3-22.5ZM25.25-33.95L25.25-33.95Q25.35-32.85 25.5-31.4 25.65-29.95 25.85-28.55 26.05-27.15 26.3-26.05L26.3-26.05Q25.9-25.7 25.33-25.58 24.75-25.45 24.05-25.45L24.05-25.45Q23.95-27 23.25-28.45 22.55-29.9 20.83-30.85 19.1-31.8 15.85-31.8L15.85-31.8 10.15-31.8 11.2-33.8Q15.15-33.8 17.98-33.83 20.8-33.85 22.63-33.9 24.45-33.95 25.25-33.95Z" opacity="1" transform="matrix(1,0,0,1,0,0)" fill="#ffdb99" class="wordmark-text-0" data-fill-palette-color="primary" id="text-0"></path></svg></g></svg></g></svg></g></svg></g></svg></g></svg></g></svg></g><path d="M71.907 41.215L71.907 0 319.107 0 319.107 247.2 71.907 247.2 71.907 205.985 85.684 205.985 85.684 233.423 305.33 233.423 305.33 13.777 85.684 13.777 85.684 41.215Z" fill="#ffdb99" stroke="transparent" data-fill-palette-color="tertiary"></path></svg></g><defs></defs></svg><rect width="395.52" height="247.2" fill="none" stroke="none" visibility="hidden"></rect></g></svg></g></svg>